<svg width="800" height="800" viewBox="0 0 800 800" fill="none" xmlns="http://www.w3.org/2000/svg">
<rect width="800" height="800" fill="#F5F5F5"/>
<rect width="800" height="800" fill="white"/>
<path d="M421.656 299.587L422.919 517.864L610.058 409.819L421.656 299.587Z" fill="#162447"/>
<path d="M458.408 431.672L481.8 418.167L493.655 438.699L470.262 452.204L458.408 431.672Z" fill="white"/>
<rect x="495.836" y="410.063" width="27.0112" height="23.7082" transform="rotate(-30 495.836 410.063)" fill="white"/>
<rect x="439.441" y="398.821" width="27.0112" height="23.7082" transform="rotate(-30 439.441 398.821)" fill="white"/>
<rect x="476.869" y="377.212" width="27.0112" height="23.7082" transform="rotate(-30 476.869 377.212)" fill="white"/>
<path d="M370.06 282.252L582.097 291.496L468.072 94L370.06 282.252Z" fill="#12A37A"/>
<path d="M496.631 250.87L482.378 226.183L501.756 214.995L516.009 239.682L496.631 250.87Z" fill="white"/>
<rect x="473.826" y="211.37" width="28.5062" height="22.3759" transform="rotate(-120 473.826 211.37)" fill="white"/>
<rect x="465.626" y="268.77" width="28.5062" height="22.3759" transform="rotate(-120 465.626 268.77)" fill="white"/>
<rect x="442.821" y="229.271" width="28.5062" height="22.3759" transform="rotate(-120 442.821 229.271)" fill="white"/>
<path d="M362.023 327.126L357.179 124.541L189 221.639L362.023 327.126Z" fill="url(#paint0_linear_0_1)"/>
<path d="M326.398 203.927L305.375 216.064L294.259 196.81L315.281 184.672L326.398 203.927Z" fill="white"/>
<rect x="292.762" y="223.347" width="24.2746" height="22.2333" transform="rotate(150 292.762 223.347)" fill="white"/>
<rect x="344.185" y="234.734" width="24.2746" height="22.2333" transform="rotate(150 344.185 234.734)" fill="white"/>
<rect x="310.549" y="254.154" width="24.2746" height="22.2333" transform="rotate(150 310.549 254.154)" fill="white"/>
<path d="M420.675 336.55L212.072 348.254L306.238 511.354L420.675 336.55Z" fill="#12A37A"/>
<path d="M292.701 376.003L304.472 396.391L284.282 408.048L272.511 387.66L292.701 376.003Z" fill="white"/>
<rect x="311.534" y="408.623" width="23.5415" height="23.3134" transform="rotate(60 311.534 408.623)" fill="white"/>
<rect x="325.005" y="357.353" width="23.5415" height="23.3134" transform="rotate(60 325.005 357.353)" fill="white"/>
<rect x="343.838" y="389.973" width="23.5415" height="23.3134" transform="rotate(60 343.838 389.973)" fill="white"/>
<path d="M272.295 553.841C272.114 552.008 271.333 550.583 269.955 549.568C268.576 548.553 266.705 548.045 264.341 548.045C262.735 548.045 261.379 548.273 260.273 548.727C259.167 549.167 258.318 549.78 257.727 550.568C257.152 551.356 256.864 552.25 256.864 553.25C256.833 554.083 257.008 554.811 257.386 555.432C257.78 556.053 258.318 556.591 259 557.045C259.682 557.485 260.47 557.871 261.364 558.205C262.258 558.523 263.212 558.795 264.227 559.023L268.409 560.023C270.439 560.477 272.303 561.083 274 561.841C275.697 562.598 277.167 563.53 278.409 564.636C279.652 565.742 280.614 567.045 281.295 568.545C281.992 570.045 282.348 571.765 282.364 573.705C282.348 576.553 281.621 579.023 280.182 581.114C278.758 583.189 276.697 584.803 274 585.955C271.318 587.091 268.083 587.659 264.295 587.659C260.538 587.659 257.265 587.083 254.477 585.932C251.705 584.78 249.538 583.076 247.977 580.818C246.432 578.545 245.621 575.735 245.545 572.386H255.068C255.174 573.947 255.621 575.25 256.409 576.295C257.212 577.326 258.28 578.106 259.614 578.636C260.962 579.152 262.485 579.409 264.182 579.409C265.848 579.409 267.295 579.167 268.523 578.682C269.765 578.197 270.727 577.523 271.409 576.659C272.091 575.795 272.432 574.803 272.432 573.682C272.432 572.636 272.121 571.758 271.5 571.045C270.894 570.333 270 569.727 268.818 569.227C267.652 568.727 266.22 568.273 264.523 567.864L259.455 566.591C255.53 565.636 252.432 564.144 250.159 562.114C247.886 560.083 246.758 557.348 246.773 553.909C246.758 551.091 247.508 548.629 249.023 546.523C250.553 544.417 252.652 542.773 255.318 541.591C257.985 540.409 261.015 539.818 264.409 539.818C267.864 539.818 270.879 540.409 273.455 541.591C276.045 542.773 278.061 544.417 279.5 546.523C280.939 548.629 281.682 551.068 281.727 553.841H272.295ZM298.888 587L289.388 552.091H299.183L304.592 575.545H304.91L310.547 552.091H320.16L325.888 575.409H326.183L331.501 552.091H341.274L331.797 587H321.547L315.547 565.045H315.115L309.115 587H298.888ZM359.593 587.659C357.366 587.659 355.381 587.273 353.639 586.5C351.896 585.712 350.517 584.553 349.502 583.023C348.502 581.477 348.002 579.553 348.002 577.25C348.002 575.311 348.358 573.682 349.07 572.364C349.783 571.045 350.752 569.985 351.98 569.182C353.207 568.379 354.601 567.773 356.161 567.364C357.737 566.955 359.389 566.667 361.116 566.5C363.146 566.288 364.783 566.091 366.025 565.909C367.267 565.712 368.169 565.424 368.73 565.045C369.29 564.667 369.57 564.106 369.57 563.364V563.227C369.57 561.788 369.116 560.674 368.207 559.886C367.313 559.098 366.04 558.705 364.389 558.705C362.646 558.705 361.26 559.091 360.23 559.864C359.199 560.621 358.517 561.576 358.184 562.727L349.23 562C349.684 559.879 350.578 558.045 351.911 556.5C353.245 554.939 354.964 553.742 357.07 552.909C359.192 552.061 361.646 551.636 364.434 551.636C366.373 551.636 368.23 551.864 370.002 552.318C371.79 552.773 373.373 553.477 374.752 554.432C376.146 555.386 377.245 556.614 378.048 558.114C378.851 559.598 379.252 561.379 379.252 563.455V587H370.07V582.159H369.798C369.237 583.25 368.487 584.212 367.548 585.045C366.608 585.864 365.48 586.508 364.161 586.977C362.843 587.432 361.32 587.659 359.593 587.659ZM362.366 580.977C363.79 580.977 365.048 580.697 366.139 580.136C367.23 579.561 368.086 578.788 368.707 577.818C369.328 576.848 369.639 575.75 369.639 574.523V570.818C369.336 571.015 368.919 571.197 368.389 571.364C367.873 571.515 367.29 571.659 366.639 571.795C365.987 571.917 365.336 572.03 364.684 572.136C364.033 572.227 363.442 572.311 362.911 572.386C361.775 572.553 360.783 572.818 359.934 573.182C359.086 573.545 358.427 574.038 357.957 574.659C357.487 575.265 357.252 576.023 357.252 576.932C357.252 578.25 357.73 579.258 358.684 579.955C359.654 580.636 360.881 580.977 362.366 580.977ZM389.964 600.091V552.091H399.509V557.955H399.941C400.365 557.015 400.979 556.061 401.782 555.091C402.6 554.106 403.661 553.288 404.964 552.636C406.282 551.97 407.918 551.636 409.873 551.636C412.418 551.636 414.767 552.303 416.918 553.636C419.07 554.955 420.789 556.947 422.077 559.614C423.365 562.265 424.009 565.591 424.009 569.591C424.009 573.485 423.38 576.773 422.123 579.455C420.88 582.121 419.183 584.144 417.032 585.523C414.895 586.886 412.502 587.568 409.85 587.568C407.971 587.568 406.373 587.258 405.055 586.636C403.752 586.015 402.683 585.235 401.85 584.295C401.017 583.341 400.38 582.379 399.941 581.409H399.645V600.091H389.964ZM399.441 569.545C399.441 571.621 399.729 573.432 400.305 574.977C400.88 576.523 401.714 577.727 402.805 578.591C403.895 579.439 405.221 579.864 406.782 579.864C408.358 579.864 409.691 579.432 410.782 578.568C411.873 577.689 412.698 576.477 413.259 574.932C413.835 573.371 414.123 571.576 414.123 569.545C414.123 567.53 413.842 565.758 413.282 564.227C412.721 562.697 411.895 561.5 410.805 560.636C409.714 559.773 408.373 559.341 406.782 559.341C405.206 559.341 403.873 559.758 402.782 560.591C401.706 561.424 400.88 562.606 400.305 564.136C399.729 565.667 399.441 567.47 399.441 569.545ZM433.664 600.091V552.091H443.209V557.955H443.641C444.065 557.015 444.679 556.061 445.482 555.091C446.3 554.106 447.361 553.288 448.664 552.636C449.982 551.97 451.618 551.636 453.573 551.636C456.118 551.636 458.467 552.303 460.618 553.636C462.77 554.955 464.489 556.947 465.777 559.614C467.065 562.265 467.709 565.591 467.709 569.591C467.709 573.485 467.08 576.773 465.823 579.455C464.58 582.121 462.883 584.144 460.732 585.523C458.595 586.886 456.202 587.568 453.55 587.568C451.671 587.568 450.073 587.258 448.755 586.636C447.452 586.015 446.383 585.235 445.55 584.295C444.717 583.341 444.08 582.379 443.641 581.409H443.345V600.091H433.664ZM443.141 569.545C443.141 571.621 443.429 573.432 444.005 574.977C444.58 576.523 445.414 577.727 446.505 578.591C447.595 579.439 448.921 579.864 450.482 579.864C452.058 579.864 453.391 579.432 454.482 578.568C455.573 577.689 456.398 576.477 456.959 574.932C457.535 573.371 457.823 571.576 457.823 569.545C457.823 567.53 457.542 565.758 456.982 564.227C456.421 562.697 455.595 561.5 454.505 560.636C453.414 559.773 452.073 559.341 450.482 559.341C448.906 559.341 447.573 559.758 446.482 560.591C445.406 561.424 444.58 562.606 444.005 564.136C443.429 565.667 443.141 567.47 443.141 569.545Z" fill="#00384D"/>
<path d="M493.341 587.659C489.689 587.659 486.538 586.939 483.886 585.5C481.25 584.045 479.22 581.977 477.795 579.295C476.386 576.598 475.682 573.394 475.682 569.682C475.682 566.076 476.394 562.924 477.818 560.227C479.242 557.515 481.25 555.409 483.841 553.909C486.432 552.394 489.485 551.636 493 551.636C495.485 551.636 497.758 552.023 499.818 552.795C501.879 553.568 503.659 554.712 505.159 556.227C506.659 557.742 507.826 559.614 508.659 561.841C509.492 564.053 509.909 566.591 509.909 569.455V572.227H479.568V565.773H499.568C499.553 564.591 499.273 563.538 498.727 562.614C498.182 561.689 497.432 560.97 496.477 560.455C495.538 559.924 494.455 559.659 493.227 559.659C491.985 559.659 490.871 559.939 489.886 560.5C488.902 561.045 488.121 561.795 487.545 562.75C486.97 563.689 486.667 564.758 486.636 565.955V572.523C486.636 573.947 486.917 575.197 487.477 576.273C488.038 577.333 488.833 578.159 489.864 578.75C490.894 579.341 492.121 579.636 493.545 579.636C494.53 579.636 495.424 579.5 496.227 579.227C497.03 578.955 497.72 578.553 498.295 578.023C498.871 577.492 499.303 576.841 499.591 576.068L509.795 576.364C509.371 578.652 508.439 580.644 507 582.341C505.576 584.023 503.705 585.333 501.386 586.273C499.068 587.197 496.386 587.659 493.341 587.659ZM535.103 587.659C531.452 587.659 528.3 586.939 525.649 585.5C523.013 584.045 520.982 581.977 519.558 579.295C518.149 576.598 517.444 573.394 517.444 569.682C517.444 566.076 518.156 562.924 519.581 560.227C521.005 557.515 523.013 555.409 525.603 553.909C528.194 552.394 531.247 551.636 534.763 551.636C537.247 551.636 539.52 552.023 541.581 552.795C543.641 553.568 545.422 554.712 546.922 556.227C548.422 557.742 549.588 559.614 550.422 561.841C551.255 564.053 551.672 566.591 551.672 569.455V572.227H521.331V565.773H541.331C541.316 564.591 541.035 563.538 540.49 562.614C539.944 561.689 539.194 560.97 538.24 560.455C537.3 559.924 536.217 559.659 534.99 559.659C533.747 559.659 532.634 559.939 531.649 560.5C530.664 561.045 529.884 561.795 529.308 562.75C528.732 563.689 528.429 564.758 528.399 565.955V572.523C528.399 573.947 528.679 575.197 529.24 576.273C529.8 577.333 530.596 578.159 531.626 578.75C532.656 579.341 533.884 579.636 535.308 579.636C536.293 579.636 537.187 579.5 537.99 579.227C538.793 578.955 539.482 578.553 540.058 578.023C540.634 577.492 541.066 576.841 541.353 576.068L551.558 576.364C551.134 578.652 550.202 580.644 548.763 582.341C547.338 584.023 545.467 585.333 543.149 586.273C540.831 587.197 538.149 587.659 535.103 587.659Z" fill="#12A37A"/>
<defs>
<linearGradient id="paint0_linear_0_1" x1="273.09" y1="173.09" x2="362.023" y2="327.126" gradientUnits="userSpaceOnUse">
<stop stop-color="#162447"/>
</linearGradient>
</defs>
</svg>
